    <svg width="37" height="33" viewBox="0 0 37 33" fill="none" xmlns="http://www.w3.org/2000/svg">
<g id="Group 45">
<path id="Vector" d="M14.2575 10.8886H3.3689L5.34032 1.14825C5.47586 0.48046 6.06321 0 6.74423 0H16.4614L14.2575 10.8886Z" fill="white"/>
<path id="Vector_2" d="M37.0001 0L35.0287 9.74031C34.8931 10.4081 34.3058 10.8886 33.6247 10.8886H16.4539L17.2605 6.90274C17.817 7.11652 18.5046 7.0515 19.1757 6.58757C20.3482 5.11865 19.3587 3.47782 17.9636 3.42823L18.6578 0H37.0001Z" fill="white"/>
<path id="Vector_3" d="M28.5611 13.1948L26.5897 22.9351C26.4541 23.6029 25.8668 24.0834 25.1858 24.0834H14.4702L15.0344 20.3675C15.5689 20.5207 16.2102 20.4215 16.8185 19.9796C17.9613 18.5063 16.9629 16.8809 15.5689 16.8445L16.1232 13.1948H28.5611Z" fill="white"/>
<path id="Vector_4" d="M13.927 13.1948L10.621 32.4H1.43283C0.544639 32.4 -0.129766 31.5999 0.0212038 30.7239L3.0384 13.1948H6.56249V14.0698C8.14492 15.8737 10.1538 14.7739 10.1538 13.2069V13.1948H13.927Z" fill="white"/>
<path id="Vector_5" d="M14.6444 7.01527C15.6364 7.01527 16.4406 6.21108 16.4406 5.21906C16.4406 4.22704 15.6364 3.42285 14.6444 3.42285C13.6523 3.42285 12.8481 4.22704 12.8481 5.21906C12.8481 6.21108 13.6523 7.01527 14.6444 7.01527Z" fill="white"/>
<path id="Vector_6" d="M12.2344 20.4362C13.2265 20.4362 14.0307 19.632 14.0307 18.64C14.0307 17.6479 13.2265 16.8438 12.2344 16.8438C11.2424 16.8438 10.4382 17.6479 10.4382 18.64C10.4382 19.632 11.2424 20.4362 12.2344 20.4362Z" fill="white"/>
<path id="Vector_7" d="M8.68928 11.9674C9.6813 11.9674 10.4855 11.1632 10.4855 10.1712C10.4855 9.17919 9.6813 8.375 8.68928 8.375C7.69726 8.375 6.89307 9.17919 6.89307 10.1712C6.89307 11.1632 7.69726 11.9674 8.68928 11.9674Z" fill="white"/>
</g>
</svg>
